<svg width="202" height="40" fill="none" xmlns="http://www.w3.org/2000/svg"><g clip-path="url(#clip0)" fill="#0f207c"><path d="M37.68 19.801c-.017.034-.033.068-.033.102 0 .068 0 .119-.017.187-.051 1.73-.985 3.224-2.512 4.004-.135.068-.288.136-.424.204-.05.017-.102.05-.17.085a3.4 3.4 0 01.12.17c.27.39.508.814.695 1.272.237.61.322 1.239.271 1.9-.017.255-.05.51-.135.764-.051-.034-.068-.085-.085-.136a10.05 10.05 0 00-.832-1.51c-.967-1.425-2.29-2.392-3.936-2.918a16.52 16.52 0 00-.984-.272.24.24 0 01.101-.034c.493-.068.985-.153 1.46-.22.865-.136 1.73-.323 2.562-.611a7.509 7.509 0 001.73-.866 5.812 5.812 0 001.8-2.002c.101-.187.186-.373.27-.543l.052-.102c.05.068 0 .153.067.204v.322z"/><path d="M32.115 11.42c.017.05.034.067.034.101.102.153.204.305.305.441.255.323.441.679.56 1.07a2.834 2.834 0 01-.017 1.594c-.05.204-.118.39-.203.577-.289.628-.798.984-1.493 1.052-.255.017-.51.017-.764-.034-.56-.119-.967-.424-1.222-.916a3.36 3.36 0 01-.305-.814 3.272 3.272 0 01.187-2.088 4.58 4.58 0 01.509-.882 2.487 2.487 0 011.713-1.018c.408-.068.815-.05 1.222.017a5.142 5.142 0 011.985.696c1.154.695 1.935 1.697 2.376 2.952.237.679.322 1.375.305 2.087a6.522 6.522 0 01-.797 3.02c-.56 1.052-1.409 1.833-2.46 2.376a8.116 8.116 0 01-1.952.695c-.933.204-1.883.39-2.817.544-.78.118-1.544.237-2.324.356-.373.05-.764.102-1.137.17-1.612.271-3.037.95-4.293 2.002-.78.661-1.46 1.425-2.036 2.273-.187.272-.356.543-.526.815-.034.05-.068.119-.119.186-.034-.034-.068-.067-.085-.101-.356-.475-.695-.968-1.052-1.443-.305-.407-.61-.797-.967-1.17-.831-.849-1.815-1.477-2.918-1.935a13.6 13.6 0 00-2.325-.695c-.543-.12-1.103-.187-1.663-.255a36.676 36.676 0 01-3.58-.61 14.236 14.236 0 01-1.85-.51c-1.085-.39-2.018-1.018-2.765-1.917a5.718 5.718 0 01-1.273-2.8A7.138 7.138 0 01.3 15.661c.068-.933.323-1.815.832-2.613a5.668 5.668 0 013.037-2.392 4.383 4.383 0 011.748-.204c.865.085 1.56.458 2.07 1.17.34.476.526 1.002.628 1.562.05.305.05.61.034.916a2.477 2.477 0 01-.713 1.646 1.776 1.776 0 01-1.035.475c-.289.034-.56.017-.848-.034-.51-.102-.9-.39-1.171-.831a2.677 2.677 0 01-.306-.798 3.196 3.196 0 01-.084-1.136c.05-.493.237-.934.526-1.324.067-.102.152-.204.237-.288.068-.068.119-.153.17-.238.017-.017.017-.034.034-.085-.051 0-.085-.017-.136 0a2.101 2.101 0 00-.9.306c-.797.492-1.306 1.187-1.476 2.104a5.248 5.248 0 00-.067 1.544c.135 1.323.661 2.46 1.595 3.41a5.12 5.12 0 001.917 1.239c.696.271 1.425.458 2.155.645.679.17 1.374.322 2.053.509.865.22 1.714.526 2.511.899a9.529 9.529 0 012.426 1.595c.085.085.17.153.306.136.017 0 .05-.017.085-.017-.017-.051-.034-.085-.051-.12-.085-.135-.153-.288-.238-.423a37.852 37.852 0 01-1.357-2.257 13.747 13.747 0 01-1.035-2.274 11.358 11.358 0 01-.51-2.12 10.791 10.791 0 01-.084-2.223c.102-1.595.56-3.089 1.425-4.446.289-.458.628-.882.968-1.323.424-.543.865-1.086 1.272-1.646.39-.51.73-1.035 1.018-1.595.39-.764.679-1.561.916-2.376.17-.628.306-1.272.408-1.917.017-.119.034-.22.067-.34.017-.067.034-.152.102-.203.034 0 .034.034.051.05.017.018.017.052.017.069l.255 1.272c.186.9.424 1.782.78 2.63a12.31 12.31 0 002.342 3.648 10.836 10.836 0 011.713 2.46c.408.832.696 1.697.849 2.597.136.78.187 1.56.153 2.341a10.64 10.64 0 01-.153 1.46 9.597 9.597 0 01-.526 1.9 17.037 17.037 0 01-1.154 2.375 66.13 66.13 0 01-1.425 2.342.557.557 0 00-.119.22.264.264 0 00.255-.034c.017-.016.05-.033.067-.067.9-.832 1.935-1.46 3.055-1.935.848-.356 1.73-.628 2.613-.831.593-.136 1.17-.255 1.764-.407a11.127 11.127 0 001.765-.543 8.696 8.696 0 001.052-.526c.73-.441 1.29-1.052 1.714-1.782.424-.696.695-1.46.814-2.274.102-.763.068-1.51-.203-2.222-.34-.883-.95-1.493-1.833-1.833-.136-.05-.271-.085-.407-.136-.068.051-.102.051-.153.051zM19.847 25.111a1.07 1.07 0 00.068-.152c.238-.526.458-1.052.696-1.578.424-.968.848-1.918 1.238-2.902.272-.696.543-1.408.73-2.138.153-.594.255-1.205.306-1.815.016-.34.034-.68.016-1.019a8.507 8.507 0 00-.254-1.832 10.222 10.222 0 00-1.137-2.783c-.39-.645-.73-1.323-1.018-2.019-.356-.848-.696-1.714-1.052-2.562a5.246 5.246 0 01-.288-.916l-.255-1.222c-.017-.068-.017-.136-.068-.204-.017.017-.034.034-.05.034-.069.204-.153.408-.187.628a14.717 14.717 0 01-.645 2.545 18.335 18.335 0 01-1.748 3.632c-.136.237-.271.458-.407.712a9.311 9.311 0 00-1.035 3.733c-.034.696 0 1.374.085 2.053.102.747.271 1.476.492 2.206.271.831.594 1.646.967 2.426.475.984.967 1.952 1.46 2.936.05.119.135.152.254.136.034-.068.017-.136.017-.204l-.102-1.391c-.017-.306-.05-.628-.085-.934-.05-.407-.102-.814-.17-1.221a6.36 6.36 0 00-.322-1.273c-.271-.764-.73-1.374-1.425-1.782-.034-.017-.051-.05-.085-.067.305-.17.628-.238.95-.17.255.034.492.136.73.271.136.068.254.153.39.22.017.018.05.018.085.018v-.102c-.034-.305-.068-.594-.085-.9a26.356 26.356 0 00-.153-1.628c-.05-.39-.119-.78-.22-1.154-.187-.628-.475-1.222-.9-1.714-.186-.22-.407-.407-.627-.594-.034 0-.085-.016-.085-.067.119-.068.254-.102.39-.136.238-.051.458-.068.696-.017.356.085.61.271.797.577.119.186.204.39.289.577.203.475.356.967.526 1.459.034.085.05.17.067.271l.051.255c0 .034.017.05.051.102.017-.085.051-.136.068-.187.034-.153.068-.288.119-.441.136-.475.288-.95.509-1.391.119-.272.271-.526.458-.764.119-.153.255-.288.424-.39a.995.995 0 01.526-.153c.255 0 .475.085.696.22a.3.3 0 01.085.069c-.068.05-.102.101-.153.135a4.01 4.01 0 00-1.17 1.527 5.65 5.65 0 00-.39 1.256c-.103.543-.154 1.086-.204 1.629-.051.458-.102.916-.136 1.374 0 .068-.034.136 0 .204.05-.017.085-.034.119-.051.135-.068.271-.153.424-.204.17-.067.34-.152.526-.22.152-.051.322-.085.475-.068.203.017.39.119.543.237v.034c-.017.017-.017.034-.034.034-.272.22-.475.475-.662.764-.187.288-.34.577-.492.882a10.35 10.35 0 00-.865 3.088c-.051.407-.068.832-.034 1.239.017.255.068.492.152.73-.017.05-.017.101.068.152z"/><path d="M13.162 30.542a.511.511 0 00-.17.068 4.582 4.582 0 01-.967.305c-.628.119-1.239.102-1.832-.118-.577-.204-1.154-.442-1.68-.747-.153-.085-.306-.17-.441-.272a6.506 6.506 0 00-2.206-.933 6.667 6.667 0 00-2.087-.136c-.272.017-.526.051-.798.068h-.067c-.034-.05-.017-.085-.017-.119.101-.339.254-.644.44-.95.29-.475.662-.899 1.07-1.272 1.018-.95 2.172-1.63 3.512-2.02a7.759 7.759 0 011.222-.237c.424-.05.865-.085 1.306-.085.289 0 .56.017.849.034.407.034.831.102 1.238.204a7.731 7.731 0 013.02 1.476c.764.61 1.426 1.323 1.986 2.12.424.595.797 1.223 1.137 1.867.034.068.05.136.118.187.017-.017.051-.034.068-.068.085-.136.187-.271.255-.407.373-.679.78-1.324 1.238-1.934.662-.849 1.426-1.595 2.325-2.172.9-.577 1.866-.95 2.901-1.171a7.257 7.257 0 011.714-.17c2.274.034 4.242.849 5.871 2.427a7.712 7.712 0 011.561 2.12c.034.052.068.102.05.17h-.067c-.203 0-.39-.017-.594-.017-.271-.017-.56-.05-.831-.05-.78-.035-1.544.118-2.274.39a8.539 8.539 0 00-1.578.78c-.696.441-1.442.747-2.223 1.001-.678.22-1.357.187-2.019-.05-.186-.069-.373-.153-.56-.221-.05-.017-.102-.051-.152-.068-.051.05-.018.068 0 .102.118.17.237.34.339.509.136.22.288.44.424.662.238.407.407.848.51 1.323.288 1.51-.34 2.885-1.63 3.648-.407.255-.865.407-1.323.51-.492.1-.984.22-1.477.322a4.249 4.249 0 00-.44.118 3.752 3.752 0 00-1.341.696c-.204.17-.407.356-.628.526-.05.034-.085.085-.153.102-.034-.034-.05-.051-.067-.085-.408-.51-.934-.865-1.528-1.12-.39-.17-.814-.271-1.238-.356l-.967-.204c-.204-.05-.425-.068-.611-.136-.866-.237-1.544-.73-2.002-1.493a3.512 3.512 0 01-.493-1.646 3.953 3.953 0 01.662-2.426c.204-.289.408-.577.611-.882 0-.051.051-.085.034-.17zm5.65 7.058c.051-.084.085-.118.102-.17.153-.254.322-.474.526-.678.322-.34.713-.594 1.137-.797.424-.204.848-.357 1.29-.51a3.6 3.6 0 00.814-.39 2.08 2.08 0 00.814-1.153c.051-.187.085-.39.085-.594a6.015 6.015 0 00-.203-1.748 9.968 9.968 0 00-.442-1.256l-.458-1.12c-.017-.05-.05-.084-.034-.152.102.034.187.068.272.102.237.118.475.22.712.305.747.255 1.51.305 2.274.085a4.635 4.635 0 001.425-.696c.645-.475 1.34-.882 2.02-1.306l1.018-.611c.034-.017.084-.034.101-.102-.017-.034-.033-.085-.05-.119l-.102-.152a1.623 1.623 0 00-.39-.374 2.737 2.737 0 00-.628-.322 7.636 7.636 0 00-2.036-.424 6.522 6.522 0 00-2.359.271c-1.476.441-2.698 1.256-3.716 2.41a8.975 8.975 0 00-1.544 2.562 15.47 15.47 0 00-.509 1.493c-.017.05-.034.119-.068.186-.034-.05-.068-.101-.085-.135-.118-.255-.237-.51-.356-.747-.255-.56-.509-1.12-.797-1.663a9.009 9.009 0 00-1.697-2.307c-1.307-1.273-2.868-1.935-4.7-2.003a9.6 9.6 0 00-1.85.12c-.322.05-.628.135-.916.254-.51.22-.916.56-1.222 1.018-.034.05-.085.102-.068.17.034.017.085.034.136.05l.356.102a2.9 2.9 0 01.662.289c.764.458 1.51.933 2.24 1.442.204.136.407.271.645.373.73.357 1.493.475 2.307.323.408-.085.798-.22 1.188-.39.153-.068.322-.136.475-.221.034-.017.051-.034.085 0a.509.509 0 01-.102.186c-.577.985-1 2.02-1.154 3.157-.05.407-.084.797-.017 1.204.051.323.153.628.323.916.254.425.628.713 1.086.9.203.085.407.153.61.22.408.153.815.306 1.205.51.628.339 1.154.797 1.494 1.425.033-.017.067.017.101.067zM16.233 0c.017.034.034.068.068.102.204.407.34.831.39 1.29.051.373.034.729 0 1.102-.101.815-.373 1.561-.73 2.29a21.229 21.229 0 01-.899 1.596 76.469 76.469 0 00-1.764 2.986 18.353 18.353 0 00-1.001 2.002 8.643 8.643 0 00-.594 2.155 9.388 9.388 0 00-.051 1.952c.068.899.254 1.781.543 2.647.254.746.526 1.493.797 2.256.068.17.12.34.187.51.017.05.017.084.034.152h-.085c-1.697-.475-3.41-.9-5.107-1.425-.323-.102-.662-.204-.967-.34-.78-.339-1.443-.848-1.935-1.56-.034-.052-.085-.102-.101-.187.067.034.118.068.17.085a6.633 6.633 0 002.12.695c.798.119 1.595.136 2.393.085l.882-.05c.102 0 .204-.018.305-.035a.444.444 0 00-.034-.39 8.245 8.245 0 01-.848-2.257 8.437 8.437 0 01-.204-1.442c-.017-.288-.034-.577-.017-.865.017-.68.085-1.34.204-2.02.136-.78.322-1.544.56-2.307.136-.441.289-.882.441-1.324.119-.373.22-.763.272-1.153.067-.56.067-1.103-.051-1.646a1.771 1.771 0 00-.424-.832 1.59 1.59 0 00-.985-.509c-.39-.05-.746.017-1.086.17a2.308 2.308 0 00-.644.407c-.289.272-.56.56-.849.832 0 0-.017.017-.017.033.034.051.085.051.136.051.255.017.51.068.764.153.22.068.424.17.61.306.526.356.764.865.764 1.493 0 .22-.034.44-.102.661-.271.73-.797 1.154-1.578 1.24a1.561 1.561 0 01-.56-.035 1.511 1.511 0 01-.848-.543 2.724 2.724 0 01-.526-1.035c-.17-.577-.136-1.137.05-1.714a4.091 4.091 0 01.9-1.527c.916-1.018 2.036-1.663 3.36-1.968a4.244 4.244 0 011.306-.085c.849.085 1.544.441 2.087 1.103.068.068.119.153.187.22.153.153.34.187.526.086.068-.034.153-.085.22-.12.781-.508 1.29-1.204 1.51-2.103.069-.255.102-.51.153-.764.017-.136.051-.271.068-.407-.017-.017 0-.017 0-.017zM32.573 17.46c.051.05.085.102.102.17l-.051.05c-.204.204-.407.39-.61.594a2.885 2.885 0 01-.883.594 23.583 23.583 0 01-3.7 1.375c-.848.237-1.696.44-2.544.661-.136.034-.255.068-.39.102-.035.017-.085.017-.12.017-.033-.068.018-.119.035-.153.254-.678.492-1.34.746-2.019.289-.78.51-1.578.645-2.392.119-.73.153-1.476.119-2.223-.068-1.154-.34-2.257-.764-3.343a14.056 14.056 0 00-1.17-2.24c-.527-.848-1.07-1.68-1.579-2.528a19.273 19.273 0 01-.797-1.425 6.37 6.37 0 01-.61-1.544 4.786 4.786 0 01-.154-1.205c0-.543.102-1.069.323-1.56.034-.069.05-.153.119-.204.05.017.034.068.05.101.068.408.17.815.323 1.205.305.78.814 1.392 1.544 1.816a.63.63 0 00.39.085.46.46 0 00.34-.187c.101-.119.203-.238.322-.34a3.154 3.154 0 011.714-.882c.305-.05.61-.068.916-.034 1.17.136 2.223.56 3.139 1.307a5.952 5.952 0 011.408 1.646c.22.356.357.746.424 1.17.068.459.018.9-.118 1.34-.085.272-.204.544-.39.764-.238.306-.544.543-.917.645a1.738 1.738 0 01-1.238-.119c-.628-.322-.95-.831-1.018-1.527-.051-.526.101-.984.373-1.425.203-.34.509-.56.9-.662.203-.05.406-.068.61-.034h.136c.034-.05.017-.084 0-.135a2.246 2.246 0 00-.51-.747c-.356-.34-.78-.56-1.272-.645a1.798 1.798 0 00-2.087 1.493 2.38 2.38 0 000 .493c.119 1.085.39 2.12.679 3.156.203.712.407 1.442.543 2.171.085.476.17.934.203 1.409.051.458.068.933.068 1.391-.017 1.12-.203 2.223-.61 3.275-.136.356-.323.712-.493 1.069-.017.05-.05.102-.068.17-.017.033-.017.05-.017.101.12.017.221.034.323.034.492.034.967.068 1.459.085.424.017.848 0 1.273-.034 1-.085 1.95-.356 2.816-.865.017.017.034 0 .068-.017z"/><path d="M7.885 23.636c-.204.051-.424.102-.628.17-1.187.34-2.24.9-3.122 1.747-.695.662-1.221 1.426-1.663 2.257-.084.17-.17.34-.237.51-.017.033-.034.067-.068.118-.017-.034-.034-.068-.034-.085a5.224 5.224 0 01-.136-.9c-.017-.39.051-.763.153-1.119.119-.39.288-.764.458-1.12.119-.237.238-.458.356-.696.034-.05.051-.101.085-.152-.017-.068-.05-.068-.085-.085-.237-.119-.475-.22-.695-.34a4.708 4.708 0 01-.95-.695A3.96 3.96 0 01.165 21.21a5.94 5.94 0 01-.153-1.816c0-.017.017-.017.017-.034.05.017.05.085.068.119.187.424.424.831.713 1.222.526.695 1.204 1.221 1.985 1.612.56.288 1.137.492 1.747.644.611.17 1.222.289 1.833.408.424.085.848.135 1.273.186.084.017.17.034.271.051-.034.017-.034.034-.034.034zM147.49 27.926c-.22-.06-.439-.14-.679-.18-1.497-.359-2.615-1.237-3.453-2.515-.759-1.118-1.557-2.195-2.315-3.293-.559-.798-1.378-.918-2.256-.898-.399.02-.659.28-.698.678-.04.44-.08.859-.08 1.298 0 .898.06 1.816.06 2.714 0 .878.259 1.597 1.277 1.996h-4.73c1.097-.559 1.057-1.557 1.057-2.535l.06-10.738c0-.22-.02-.44-.02-.659 0-.978-.259-1.776-1.317-2.135.319 0 .639-.02.938 0 2.236.12 4.451.18 6.687.359 2.535.2 3.932 2.615 2.794 4.91-.539 1.118-1.297 2.116-1.996 3.154-.239.339-.259.558.04.898.938 1.138 1.836 2.335 2.754 3.493 1.098 1.377 2.376 2.535 4.132 3.193-.239.08-.419.16-.579.22-.579.04-1.137.04-1.676.04zm-9.501-10.918h-.04c.04.758.06 1.537.12 2.295.04.46.259.759.798.719.579-.04 1.138.02 1.717-.02.838-.04 1.457-.46 1.816-1.238.519-1.117.559-2.275.239-3.473-.459-1.736-1.477-2.614-3.253-2.794-.998-.1-1.437.28-1.417 1.297.02 1.078.02 2.156.02 3.214zM70.485 27.926c-.699-.04-1.398-.1-2.096-.14-.22-.02-.42 0-.838 0 1.017-.439 1.177-1.178 1.177-2.016 0-1.636.02-3.273.02-4.91l.06-6.926c0-.818-.12-1.577-1.038-2.096h4.471c-.838.5-.958 1.258-.958 2.076 0 3.313 0 6.647.02 9.96 0 .519.04 1.018.1 1.537.08.758.399 1.217 1.137 1.317 1.058.12 2.116.16 3.174.1.938-.04 1.597-.619 1.976-1.557.14 1.757-.08 2.236-1.297 2.675-1.956-.02-3.932-.02-5.908-.02zM173.298 24.074c.678-1.438 1.317-2.775 1.956-4.132 1.297-2.735 2.595-5.45 3.892-8.184.08-.16.259-.279.399-.439.1.18.24.36.26.54.658 4.43 1.277 8.861 1.936 13.292.139.998.399 1.957 1.597 2.456h-3.693c-.2-1.537-.399-3.054-.599-4.571a530.538 530.538 0 00-.738-5.57c-.02-.139-.14-.259-.22-.378-.14.14-.339.24-.419.399a3351.673 3351.673 0 00-4.072 8.423c-.219.459-.439.938-.678 1.377-.1.18-.26.3-.4.44-.139-.16-.299-.3-.379-.48-1.078-2.195-2.156-4.39-3.213-6.607-.46-.957-.939-1.916-1.398-2.874-.08-.18-.199-.32-.379-.638-.12.279-.219.419-.239.558-.4 2.795-.799 5.59-1.158 8.384-.1.718.259 1.217 1.078 1.556h-3.334c-.02-.04-.039-.1-.02-.1 1.078-1.277 1.078-2.893 1.318-4.41.599-3.633 1.138-7.286 1.716-10.938.04-.32.22-.6.34-.899.179.24.419.48.559.739 1.876 3.832 3.732 7.665 5.588 11.497.08.22.16.34.3.559zM94.776 27.766c1.217-.439 1.676-1.357 2.056-2.335 1.397-3.513 2.774-7.046 4.171-10.559.419-1.038.858-2.076 1.278-3.114.079-.22.219-.399.439-.758a263.684 263.684 0 011.776 4.351l4.012 10.06c.399.998.918 1.896 1.956 2.395-1.197 0-2.395.02-3.573-.02-.139 0-.359-.26-.419-.439-.439-1.198-.798-2.435-1.237-3.633-.479-1.297-.759-1.497-2.136-1.497-.918 0-1.816 0-2.735-.02-.558-.02-.958.16-1.157.719-.38 1.078-.799 2.136-1.158 3.233-.26.759-.12 1.098.48 1.637-1.218-.02-2.396-.02-3.753-.02zm9.441-6.606c-.04-.16-.06-.3-.1-.42-.559-1.556-1.138-3.113-1.717-4.67-.06-.16-.199-.28-.299-.4-.12.14-.279.26-.339.42-.579 1.517-1.138 3.034-1.697 4.55-.06.16-.1.32-.16.52h4.312zM51.483 27.766H47.59c1.317-.559 1.736-1.597 2.155-2.654 1.757-4.412 3.513-8.823 5.29-13.234.08-.2.299-.36.459-.539.12.18.3.36.379.56 1.796 4.45 3.573 8.881 5.37 13.332.418 1.018.857 2.016 1.995 2.535h-2.714c-1.198-.02-.919.14-1.338-.898a129.049 129.049 0 01-1.497-3.872c-.2-.56-.559-.759-1.117-.759h-3.014c-.759 0-1.318.36-1.597 1.018a35.07 35.07 0 00-1.158 3.034c-.2.54-.1 1.078.679 1.477zm5.489-6.606c0-.12 0-.2-.02-.26-.58-1.617-1.178-3.213-1.777-4.81-.04-.14-.18-.22-.28-.34-.119.12-.279.22-.319.36-.459 1.197-.898 2.395-1.337 3.592-.18.48-.34.958-.539 1.477 1.457-.02 2.855-.02 4.272-.02zM194.276 11c1.157 2.914 2.255 5.629 3.353 8.363l2.335 5.808c.419 1.058.898 2.056 2.036 2.595-1.078 0-2.156-.02-3.253 0-.38 0-.559-.14-.679-.479-.519-1.457-1.078-2.874-1.597-4.331-.16-.48-.479-.739-.958-.739-1.198.02-2.395.04-3.613.12-.638.04-1.157.4-1.377.998-.399 1.078-.758 2.156-1.018 3.273-.08.36.26.799.399 1.178h-3.652c1.297-.439 1.756-1.417 2.175-2.455 1.697-4.311 3.413-8.622 5.11-12.934.18-.439.439-.838.739-1.397zm-2.815 10.16h4.252c.02-.06.04-.1.02-.14-.599-1.697-1.218-3.373-1.817-5.07-.04-.1-.179-.18-.259-.26-.1.1-.24.2-.3.32-.399 1.038-.778 2.076-1.157 3.094-.24.678-.479 1.337-.739 2.056zM123.997 27.766h-5.848c1.157-.519 1.357-1.397 1.357-2.435-.02-3.593.02-7.185.02-10.778v-.3c0-1.716-.16-1.936-1.856-2.455.159-.1.259-.22.339-.2 2.675.16 5.349.36 8.024.52 1.577.1 2.794 1.098 2.834 3.233.04 2.296-1.297 4.292-3.473 4.87-.519.14-1.078.18-1.657.14.06-.04.12-.1.2-.12 2.116-.558 2.735-2.614 2.635-4.191-.14-1.976-1.557-3.413-3.433-3.653-.559-.08-.919.16-1.058.699-.08.28-.1.579-.12.878v11.078c0 .18 0 .359.02.539.06 1.277.299 1.596 1.537 1.996.1.06.239.1.479.18zM91.382 18.545V20.9c-.838-1.417-2.055-1.417-3.333-1.217-.2.02-.399.04-.599.04-.738.02-1.057.219-1.077.997-.04 1.418 0 2.835 0 4.272 0 .419.06.818.08 1.237.04.659.319 1.118.997 1.278.18.04.36.14.68.26h-5.37c.998-.56 1.098-1.458 1.098-2.416 0-3.812 0-7.625.02-11.437 0-.918-.2-1.716-1.198-2.136h9.321c-.04.739-.08 1.438-.14 2.296-.578-1.278-1.616-1.357-2.674-1.338a30.1 30.1 0 00-1.896.1c-.5.06-.819.4-.839.878-.06 1.318-.1 2.635-.06 3.952.04.759.32 1.018 1.098 1.058.978.04 1.956-.04 2.954-.06.32-.04.58-.08.938-.12zM157.41 11.818c-.719.46-.938 1.018-.938 1.697 0 4.171.02 8.343.02 12.515 0 1.058.638 1.497 1.556 1.736h-5.149c.878-.399 1.038-1.098 1.038-1.916V13.455c0-.639-.14-1.198-.779-1.637h4.252z"/></g><defs><clipPath id="clip0"><path fill="#fff" d="M0 0h202v39.06H0z"/></clipPath></defs></svg>
